<?xml version="1.0" encoding="utf-8"?>
<!-- Generator: Adobe Illustrator 22.1.0, SVG Export Plug-In . SVG Version: 6.00 Build 0)  -->
<svg version="1.1" id="Layer_1" xmlns="http://www.w3.org/2000/svg" xmlns:xlink="http://www.w3.org/1999/xlink" x="0px" y="0px"
	 viewBox="0 0 161.4 45.4" style="enable-background:new 0 0 161.4 45.4;" xml:space="preserve">
<g>
	<g>
		<g>
			<path d="M0,45.4h11.6V19c3.2,5,6.4,10,9.4,15.1h11.7L47.9,8.7h28.6V0.1H41.7c-0.1,0.5-6,9.9-6.6,10.8c-0.3,0.5-0.6,1-1,1.5
				l-7.7,12.2L11.3,0.1H0V45.4z"/>
		</g>
		<g>
			<polygon points="85.4,45.4 97,45.4 97,21.2 110.3,45.4 121.7,45.4 109.5,22.8 122.3,0.1 110.8,0.1 104,12.4 96.7,0.1 85.4,0.1 
							"/>
		</g>
		<g>
			<polygon points="41.7,24.1 41.7,45.4 76.6,45.4 76.6,36.7 53.2,36.7 53.2,27.2 76.6,27.2 76.6,18.4 53.2,18.4 53.2,10.8 
				49.5,10.8 			"/>
		</g>
		<g>
			<rect x="150.5" y="18.1" width="9.5" height="27.3"/>
		</g>
		<g>
			<polygon points="125.7,25.3 143,25.3 138.7,17.9 121.6,17.9 			"/>
		</g>
		<g>
			<path d="M155.2,11.4c3.4,0,6.2-2.5,6.2-5.7c0-3.1-2.8-5.7-6.2-5.7c-3.4,0-6.2,2.5-6.2,5.7S151.8,11.4,155.2,11.4z"/>
		</g>
	</g>
</g>
</svg>
